<svg xmlns="http://www.w3.org/2000/svg" xmlns:xlink="http://www.w3.org/1999/xlink" width="2000" zoomAndPan="magnify" viewBox="0 0 1500 1499.999933" height="2000" preserveAspectRatio="xMidYMid meet" version="1.0"><defs><g/><clipPath id="e9149e803b"><path d="M 0.453125 0.308594 L 308.785156 0.308594 L 308.785156 308.644531 L 0.453125 308.644531 Z M 0.453125 0.308594 " clip-rule="nonzero"/></clipPath><clipPath id="c82d563fd5"><path d="M 154.617188 0.308594 C 69.476562 0.308594 0.453125 69.332031 0.453125 154.476562 C 0.453125 239.621094 69.476562 308.644531 154.617188 308.644531 C 239.761719 308.644531 308.785156 239.621094 308.785156 154.476562 C 308.785156 69.332031 239.761719 0.308594 154.617188 0.308594 Z M 154.617188 0.308594 " clip-rule="nonzero"/></clipPath><clipPath id="74d02f443f"><path d="M 0.453125 0.308594 L 308.785156 0.308594 L 308.785156 308.644531 L 0.453125 308.644531 Z M 0.453125 0.308594 " clip-rule="nonzero"/></clipPath><clipPath id="384523ffbb"><path d="M 154.617188 0.308594 C 69.476562 0.308594 0.453125 69.332031 0.453125 154.476562 C 0.453125 239.621094 69.476562 308.644531 154.617188 308.644531 C 239.761719 308.644531 308.785156 239.621094 308.785156 154.476562 C 308.785156 69.332031 239.761719 0.308594 154.617188 0.308594 Z M 154.617188 0.308594 " clip-rule="nonzero"/></clipPath><clipPath id="5b89c9c6a9"><rect x="0" width="309" y="0" height="309"/></clipPath><clipPath id="1933532800"><path d="M 55.75 146 L 253 146 L 253 224.835938 L 55.75 224.835938 Z M 55.75 146 " clip-rule="nonzero"/></clipPath><clipPath id="b120cf941e"><rect x="0" width="309" y="0" height="309"/></clipPath><clipPath id="22e324c1a1"><rect x="0" width="989" y="0" height="291"/></clipPath></defs><g transform="matrix(1, 0, 0, 1, 118, 511)"><g clip-path="url(#b120cf941e)"><g clip-path="url(#e9149e803b)"><g clip-path="url(#c82d563fd5)"><g transform="matrix(1, 0, 0, 1, 0.000000000000014211, 0.000000000000113687)"><g clip-path="url(#5b89c9c6a9)"><g clip-path="url(#74d02f443f)"><g clip-path="url(#384523ffbb)"><path fill="#3ac530" d="M 0.453125 0.308594 L 308.785156 0.308594 L 308.785156 308.644531 L 0.453125 308.644531 Z M 0.453125 0.308594 " fill-opacity="1" fill-rule="nonzero"/></g></g></g></g></g></g><path fill="#ffffff" d="M 215.003906 180.167969 C 212.242188 168.160156 203.582031 162.988281 192.765625 160.28125 C 194.261719 160.910156 195.78125 161.484375 197.246094 162.171875 C 202.996094 164.882812 208.183594 168.429688 210.863281 174.375 C 214.5 182.445312 213.6875 183.390625 207.550781 187.3125 C 205.121094 188.863281 202.449219 190.136719 199.730469 191.109375 C 198.148438 191.675781 196.25 191.574219 194.511719 191.476562 C 185.316406 190.96875 176.277344 189.375 167.316406 187.308594 C 167.15625 187.269531 167.011719 187.167969 166.789062 187.0625 C 171.0625 185.15625 175.28125 183.277344 179.496094 181.398438 C 179.4375 181.242188 179.375 181.085938 179.316406 180.929688 C 178.796875 181.128906 178.28125 181.328125 177.761719 181.527344 C 160.253906 188.289062 142.273438 192.574219 123.355469 191.914062 C 113.226562 191.558594 103.386719 189.816406 94.191406 185.371094 C 91.949219 184.285156 89.796875 182.917969 87.8125 181.410156 C 82.550781 177.410156 80.988281 172.816406 82.910156 166.464844 C 85.980469 156.339844 93.167969 150.5625 103.207031 148.144531 C 111.894531 146.050781 120.3125 147.609375 128.582031 150.453125 C 128.851562 150.542969 129.113281 150.675781 129.347656 150.832031 C 137.511719 156.351562 146.5625 159.925781 155.875 162.925781 C 156.191406 163.027344 156.484375 163.1875 157.148438 163.476562 C 152.441406 164.152344 148.105469 164.792969 143.761719 165.394531 C 136.351562 166.421875 128.925781 167.230469 121.421875 166.976562 C 117.234375 166.839844 113.113281 166.296875 109.183594 164.789062 C 105.886719 163.523438 103.027344 161.734375 102.339844 157.902344 C 102.082031 159.734375 102.921875 161.660156 104.855469 163.367188 C 107.402344 165.613281 110.460938 166.835938 113.703125 167.644531 C 120.324219 169.296875 127.074219 169.457031 133.78125 168.777344 C 142.570312 167.882812 151.308594 166.484375 160.085938 165.453125 C 161.824219 165.25 163.769531 165.382812 165.40625 165.960938 C 170.722656 167.835938 176.003906 169.84375 181.160156 172.109375 C 183.417969 173.097656 185.480469 174.671875 187.394531 176.265625 C 190.167969 178.566406 191.6875 181.550781 191.171875 185.335938 C 192.160156 183.585938 192.199219 181.730469 191.679688 179.855469 C 190.960938 177.292969 189.375 175.3125 187.351562 173.632812 C 183.199219 170.1875 178.339844 168.050781 173.332031 166.277344 C 165.003906 163.332031 156.574219 160.664062 148.277344 157.636719 C 140.921875 154.949219 133.855469 151.621094 127.660156 146.691406 C 121.453125 141.757812 116.714844 135.816406 115.242188 127.816406 C 113.261719 117.042969 117.5625 108.859375 126.203125 102.734375 C 132.652344 98.164062 140.0625 95.882812 147.726562 94.359375 C 150.578125 93.796875 153.445312 93.316406 156.320312 92.875 C 160.855469 92.179688 165.230469 90.972656 169.429688 89.109375 C 170.714844 88.539062 172.074219 88.128906 173.566406 87.945312 C 172.074219 89.125 170.582031 90.304688 169.09375 91.484375 C 177.1875 86.371094 185.804688 84.125 195.839844 85.9375 C 193.945312 86.464844 192.511719 86.863281 191.082031 87.265625 C 191.097656 87.355469 191.113281 87.441406 191.132812 87.53125 C 194.132812 86.996094 197.167969 86.582031 200.132812 85.882812 C 203 85.207031 205.730469 85.234375 208.535156 86.207031 C 210.296875 86.816406 212.1875 87.046875 214.019531 87.46875 C 215.628906 87.835938 217.261719 88.140625 218.835938 88.625 C 223.253906 89.980469 224.980469 95.203125 222.4375 99.125 C 221.8125 100.089844 221.367188 101.226562 221.078125 102.34375 C 220.367188 105.078125 219.335938 107.613281 217.441406 109.632812 C 217.910156 107.730469 218.539062 105.808594 218.824219 103.835938 C 219.113281 101.800781 218.628906 101.492188 216.609375 101.808594 C 216.308594 101.855469 215.964844 101.640625 215.539062 101.519531 C 215.152344 105.078125 213.867188 108.429688 211.210938 110.941406 C 211.632812 109.027344 212.269531 107.035156 212.460938 105 C 212.648438 102.960938 212.042969 102.703125 210.023438 103.191406 C 206.867188 103.949219 203.683594 104.578125 200.523438 105.320312 C 199.953125 105.457031 199.324219 105.75 198.929688 106.167969 C 196.808594 108.410156 196.84375 114.246094 198.992188 116.40625 C 199.300781 116.71875 199.910156 116.820312 200.394531 116.859375 C 205.746094 117.269531 209.683594 119.722656 211.875 124.730469 C 213.773438 129.066406 217.019531 131.289062 221.820312 131.367188 C 219.808594 131.367188 217.800781 131.367188 215.671875 131.367188 C 216.957031 132.300781 218.292969 133.265625 219.5625 134.1875 C 217.050781 134.0625 213.726562 131.804688 211.921875 128.835938 C 211.003906 127.328125 210.242188 125.726562 209.363281 124.191406 C 207.425781 120.820312 204.320312 119.4375 200.042969 118.976562 C 201.726562 121.238281 203.09375 123.171875 204.570312 125.019531 C 205.808594 126.5625 205.621094 127.972656 203.820312 128.835938 C 201.78125 129.808594 199.644531 129.640625 197.671875 128.757812 C 195.867188 127.949219 194.066406 126.984375 192.515625 125.765625 C 186.308594 120.894531 179.835938 116.445312 172.890625 112.6875 C 171.695312 112.039062 170.613281 111.191406 169.246094 110.699219 C 170.574219 111.800781 171.902344 112.902344 173.230469 114.003906 C 163.648438 110.886719 154.210938 110.449219 144.855469 115.195312 C 145.554688 114.609375 146.226562 113.984375 146.964844 113.449219 C 147.695312 112.914062 148.492188 112.472656 149.167969 111.890625 C 143.480469 113.789062 139.621094 117.609375 137.855469 123.34375 C 135.953125 129.511719 137.792969 134.769531 142.34375 139.214844 C 138.261719 133.460938 137.398438 127.527344 141.203125 121.273438 C 141.636719 128.164062 146.3125 131.792969 151.59375 134.855469 C 159.347656 139.347656 167.914062 141.554688 176.605469 143.28125 C 182.921875 144.539062 189.3125 145.449219 195.609375 146.78125 C 201.058594 147.933594 206.191406 150.007812 210.699219 153.394531 C 218.703125 159.402344 220.921875 170.007812 215.996094 178.640625 C 215.71875 179.121094 215.390625 179.574219 215.003906 180.167969 Z M 135.121094 172.472656 C 134.101562 172.472656 133.078125 172.515625 132.0625 172.464844 C 127.285156 172.226562 122.457031 172.324219 117.746094 171.636719 C 109.199219 170.382812 101.066406 167.96875 95.363281 160.699219 C 96.089844 162.980469 97.570312 164.730469 99.34375 166.257812 C 103.164062 169.550781 107.707031 171.359375 112.566406 172.335938 C 120.054688 173.847656 127.589844 173.679688 135.121094 172.472656 Z M 117.425781 125.195312 C 117.960938 118.726562 120.488281 113.210938 125.003906 108.589844 C 129.429688 104.054688 134.84375 101.054688 140.554688 98.511719 C 133.496094 100.765625 126.925781 103.832031 122.117188 109.773438 C 118.472656 114.273438 116.980469 119.453125 117.425781 125.195312 Z M 183.085938 103.828125 C 183.609375 103.96875 184.125 104.152344 184.65625 104.25 C 192.515625 105.714844 200.175781 105.003906 207.730469 102.398438 C 210.34375 101.496094 213.144531 101.148438 215.839844 100.476562 C 216.925781 100.203125 217.964844 99.734375 219.03125 99.378906 C 219.945312 99.070312 220.863281 98.796875 221.808594 98.496094 C 221.269531 97.601562 220.40625 98.035156 219.507812 98.433594 C 218.429688 98.914062 217.359375 99.488281 216.222656 99.753906 C 213.621094 100.351562 210.902344 100.53125 208.375 101.335938 C 200.105469 103.96875 191.738281 105.089844 183.085938 103.828125 Z M 199.375 126.78125 C 199.410156 126.710938 199.449219 126.644531 199.488281 126.578125 C 197.414062 124.566406 195.207031 122.667969 193.292969 120.511719 C 189.890625 116.671875 186.695312 112.644531 183.335938 108.761719 C 182.210938 107.464844 180.847656 106.375 179.589844 105.1875 C 181.71875 108.167969 183.976562 110.988281 186.3125 113.738281 C 188.824219 116.691406 191.304688 119.683594 194 122.460938 C 195.589844 124.097656 197.570312 125.351562 199.375 126.78125 Z M 197.910156 94.636719 C 198.046875 93.601562 198.175781 92.65625 198.300781 91.707031 C 198.453125 91.730469 198.605469 91.75 198.757812 91.773438 C 198.757812 92.722656 198.757812 93.667969 198.757812 94.679688 C 200.179688 94.738281 201.359375 94.269531 201.480469 92.886719 C 201.628906 91.171875 200.019531 90.886719 198.796875 90.5625 C 197.628906 90.25 196.363281 90.4375 196.027344 91.835938 C 195.675781 93.292969 196.613281 94.121094 197.910156 94.636719 Z M 180.957031 92.734375 C 173.332031 91.765625 166.683594 96.417969 168.226562 101.289062 C 169.738281 94.710938 175.042969 93.605469 180.957031 92.734375 Z M 205.464844 91.4375 C 198.03125 87.890625 196.03125 87.703125 193.828125 89.546875 C 195.390625 89.472656 197.476562 89.054688 199.449219 89.367188 C 201.511719 89.691406 203.464844 90.71875 205.464844 91.4375 Z M 191.09375 106.488281 C 188.410156 108.226562 187.707031 111.871094 189.382812 113.867188 C 188.882812 110.542969 189.042969 109.789062 191.09375 106.488281 Z M 216.40625 90.839844 C 219.277344 92.609375 219.347656 92.8125 218.4375 95.796875 C 220.359375 93.496094 219.777344 91.695312 216.40625 90.839844 Z M 216.40625 90.839844 " fill-opacity="1" fill-rule="nonzero"/><g clip-path="url(#1933532800)"><path fill="#ffffff" d="M 227.832031 186.113281 C 220.988281 190.835938 213.179688 191.132812 205.261719 191.4375 C 212.820312 187.414062 218.652344 181.976562 220.65625 173.398438 C 238.820312 173.636719 249.707031 184.136719 252.699219 198.597656 C 253.476562 202.363281 252.53125 205.414062 249.664062 207.984375 C 245.605469 211.621094 240.726562 213.65625 235.640625 215.230469 C 225.941406 218.234375 215.933594 219.539062 205.851562 220.335938 C 200.449219 220.761719 195.035156 220.992188 189.210938 221.332031 C 190.074219 221.457031 190.566406 221.589844 191.054688 221.589844 C 205.457031 221.582031 219.8125 221.019531 233.890625 217.582031 C 238.667969 216.414062 243.34375 214.886719 247.488281 212.152344 C 249.226562 211.007812 250.777344 209.570312 252.433594 208.25 C 251.71875 211.835938 249.691406 214.519531 246.605469 216.449219 C 242.054688 219.292969 236.9375 220.519531 231.753906 221.34375 C 212.28125 224.445312 192.667969 224.832031 173.027344 223.847656 C 165.804688 223.484375 158.578125 222.695312 151.429688 221.59375 C 142.300781 220.1875 134.488281 215.535156 127.21875 210.136719 C 120.910156 205.445312 114.964844 200.261719 108.859375 195.296875 C 108.523438 195.027344 108.203125 194.738281 107.777344 194.574219 C 114.835938 203.8125 123.613281 211.089844 133.992188 217.273438 C 130.835938 217.960938 128.109375 218.628906 125.351562 219.140625 C 112.78125 221.476562 100.253906 221.453125 87.886719 217.953125 C 78.003906 215.160156 69.804688 209.832031 64.183594 201.050781 C 59.152344 193.1875 58.449219 184.671875 60.484375 175.699219 C 61.414062 171.601562 62.136719 167.40625 62.367188 163.222656 C 62.675781 157.632812 60.746094 152.683594 56.625 148.722656 C 56.460938 148.566406 56.25 148.421875 56.160156 148.226562 C 55.984375 147.84375 55.882812 147.429688 55.75 147.027344 C 56.21875 146.992188 56.746094 146.800781 57.144531 146.953125 C 57.824219 147.210938 58.464844 147.628906 59.046875 148.078125 C 63.632812 151.660156 66.242188 156.484375 66.453125 162.179688 C 66.625 166.863281 66.167969 171.636719 65.425781 176.28125 C 62.941406 191.863281 72.871094 202.054688 84.902344 205.414062 C 91.207031 207.175781 97.519531 207.207031 103.84375 205.605469 C 104.882812 205.339844 105.875 204.917969 106.835938 204.375 C 104.714844 204.730469 102.605469 205.214844 100.472656 205.425781 C 90.4375 206.425781 81.324219 204.253906 73.554688 197.488281 C 72.578125 196.640625 72.285156 195.765625 72.382812 194.511719 C 72.851562 188.507812 77.125 182.523438 83.101562 179.636719 C 91.386719 188.476562 102.363281 191.304688 113.703125 192.902344 C 129.535156 195.132812 145.105469 193.300781 160.414062 188.863281 C 161.503906 188.546875 162.800781 188.484375 163.902344 188.734375 C 173.816406 190.980469 183.769531 192.945312 193.949219 193.496094 C 202.421875 193.957031 210.847656 193.765625 219.039062 191.230469 C 220.925781 190.644531 222.765625 189.792969 224.492188 188.820312 C 225.722656 188.128906 226.726562 187.03125 227.832031 186.113281 Z M 111.648438 204.457031 C 111.851562 204.25 112.050781 204.042969 112.253906 203.832031 C 111.617188 203.308594 110.898438 202.851562 110.359375 202.242188 C 108.28125 199.894531 106.3125 197.453125 104.191406 195.148438 C 103.386719 194.273438 102.378906 193.464844 101.304688 192.984375 C 96.742188 190.949219 92.066406 189.15625 87.539062 187.042969 C 85.734375 186.203125 84.207031 184.761719 82.550781 183.589844 C 82.4375 183.71875 82.320312 183.84375 82.203125 183.972656 C 83.808594 185.417969 85.222656 187.214844 87.0625 188.234375 C 90.832031 190.324219 94.769531 192.136719 98.753906 193.777344 C 100.695312 194.578125 102.324219 195.488281 103.792969 197.054688 C 106.242188 199.679688 109.011719 202.003906 111.648438 204.457031 Z M 111.648438 204.457031 " fill-opacity="1" fill-rule="nonzero"/></g></g></g><g transform="matrix(1, 0, 0, 1, 443, 520)"><g clip-path="url(#22e324c1a1)"><g fill="#3ac530" fill-opacity="1"><g transform="translate(0.452378, 216.395762)"><g><path d="M 101.03125 -74.6875 C 109.46875 -72.882812 116.242188 -68.695312 121.359375 -62.125 C 126.472656 -55.5625 129.03125 -48.0625 129.03125 -39.625 C 129.03125 -27.457031 124.773438 -17.8125 116.265625 -10.6875 C 107.765625 -3.5625 95.910156 0 80.703125 0 L 12.859375 0 L 12.859375 -145.625 L 78.421875 -145.625 C 93.210938 -145.625 104.789062 -142.234375 113.15625 -135.453125 C 121.53125 -128.679688 125.71875 -119.488281 125.71875 -107.875 C 125.71875 -99.300781 123.46875 -92.175781 118.96875 -86.5 C 114.476562 -80.832031 108.5 -76.894531 101.03125 -74.6875 Z M 48.34375 -86.71875 L 71.578125 -86.71875 C 77.378906 -86.71875 81.835938 -87.992188 84.953125 -90.546875 C 88.066406 -93.109375 89.625 -96.878906 89.625 -101.859375 C 89.625 -106.835938 88.066406 -110.640625 84.953125 -113.265625 C 81.835938 -115.898438 77.378906 -117.21875 71.578125 -117.21875 L 48.34375 -117.21875 Z M 74.46875 -28.625 C 80.414062 -28.625 85.015625 -29.972656 88.265625 -32.671875 C 91.515625 -35.367188 93.140625 -39.273438 93.140625 -44.390625 C 93.140625 -49.515625 91.445312 -53.523438 88.0625 -56.421875 C 84.675781 -59.328125 80.007812 -60.78125 74.0625 -60.78125 L 48.34375 -60.78125 L 48.34375 -28.625 Z M 74.46875 -28.625 "/></g></g></g><g fill="#3ac530" fill-opacity="1"><g transform="translate(137.158875, 216.395762)"><g><path d="M 127.171875 -115.765625 L 127.171875 0 L 91.6875 0 L 91.6875 -15.765625 C 88.09375 -10.648438 83.21875 -6.535156 77.0625 -3.421875 C 70.914062 -0.304688 64.109375 1.25 56.640625 1.25 C 47.785156 1.25 39.96875 -0.71875 33.1875 -4.65625 C 26.414062 -8.601562 21.160156 -14.3125 17.421875 -21.78125 C 13.691406 -29.25 11.828125 -38.03125 11.828125 -48.125 L 11.828125 -115.765625 L 47.09375 -115.765625 L 47.09375 -52.90625 C 47.09375 -45.15625 49.097656 -39.132812 53.109375 -34.84375 C 57.117188 -30.5625 62.515625 -28.421875 69.296875 -28.421875 C 76.203125 -28.421875 81.660156 -30.5625 85.671875 -34.84375 C 89.679688 -39.132812 91.6875 -45.15625 91.6875 -52.90625 L 91.6875 -115.765625 Z M 127.171875 -115.765625 "/></g></g></g><g fill="#3ac530" fill-opacity="1"><g transform="translate(276.977045, 216.395762)"><g><path d="M 56.84375 -117.421875 C 65 -117.421875 72.15625 -115.757812 78.3125 -112.4375 C 84.46875 -109.113281 89.207031 -104.757812 92.53125 -99.375 L 92.53125 -115.765625 L 128 -115.765625 L 128 -0.203125 C 128 10.441406 125.890625 20.085938 121.671875 28.734375 C 117.453125 37.378906 111.019531 44.257812 102.375 49.375 C 93.726562 54.488281 82.976562 57.046875 70.125 57.046875 C 52.96875 57.046875 39.066406 53 28.421875 44.90625 C 17.773438 36.820312 11.691406 25.863281 10.171875 12.03125 L 45.21875 12.03125 C 46.332031 16.457031 48.960938 19.945312 53.109375 22.5 C 57.253906 25.0625 62.367188 26.34375 68.453125 26.34375 C 75.785156 26.34375 81.628906 24.234375 85.984375 20.015625 C 90.347656 15.796875 92.53125 9.054688 92.53125 -0.203125 L 92.53125 -16.59375 C 89.070312 -11.195312 84.296875 -6.804688 78.203125 -3.421875 C 72.117188 -0.0351562 65 1.65625 56.84375 1.65625 C 47.300781 1.65625 38.65625 -0.796875 30.90625 -5.703125 C 23.164062 -10.609375 17.046875 -17.59375 12.546875 -26.65625 C 8.054688 -35.71875 5.8125 -46.195312 5.8125 -58.09375 C 5.8125 -69.976562 8.054688 -80.414062 12.546875 -89.40625 C 17.046875 -98.394531 23.164062 -105.3125 30.90625 -110.15625 C 38.65625 -115 47.300781 -117.421875 56.84375 -117.421875 Z M 92.53125 -57.875 C 92.53125 -66.726562 90.070312 -73.710938 85.15625 -78.828125 C 80.25 -83.953125 74.269531 -86.515625 67.21875 -86.515625 C 60.164062 -86.515625 54.179688 -83.988281 49.265625 -78.9375 C 44.359375 -73.882812 41.90625 -66.9375 41.90625 -58.09375 C 41.90625 -49.238281 44.359375 -42.21875 49.265625 -37.03125 C 54.179688 -31.84375 60.164062 -29.25 67.21875 -29.25 C 74.269531 -29.25 80.25 -31.804688 85.15625 -36.921875 C 90.070312 -42.046875 92.53125 -49.03125 92.53125 -57.875 Z M 92.53125 -57.875 "/></g></g></g><g fill="#3ac530" fill-opacity="1"><g transform="translate(417.832481, 216.395762)"><g><path d="M 149.578125 -145.625 L 97.921875 0 L 53.515625 0 L 1.859375 -145.625 L 39.625 -145.625 L 75.71875 -35.6875 L 112.03125 -145.625 Z M 149.578125 -145.625 "/></g></g></g><g fill="#3ac530" fill-opacity="1"><g transform="translate(569.267556, 216.395762)"><g><path d="M 30.703125 -127.796875 C 24.484375 -127.796875 19.398438 -129.625 15.453125 -133.28125 C 11.515625 -136.945312 9.546875 -141.476562 9.546875 -146.875 C 9.546875 -152.40625 11.515625 -157.003906 15.453125 -160.671875 C 19.398438 -164.335938 24.484375 -166.171875 30.703125 -166.171875 C 36.785156 -166.171875 41.796875 -164.335938 45.734375 -160.671875 C 49.679688 -157.003906 51.65625 -152.40625 51.65625 -146.875 C 51.65625 -141.476562 49.679688 -136.945312 45.734375 -133.28125 C 41.796875 -129.625 36.785156 -127.796875 30.703125 -127.796875 Z M 48.34375 -115.765625 L 48.34375 0 L 12.859375 0 L 12.859375 -115.765625 Z M 48.34375 -115.765625 "/></g></g></g><g fill="#3ac530" fill-opacity="1"><g transform="translate(630.46397, 216.395762)"><g><path d="M 48.34375 -99.375 C 51.789062 -104.757812 56.554688 -109.113281 62.640625 -112.4375 C 68.734375 -115.757812 75.859375 -117.421875 84.015625 -117.421875 C 93.554688 -117.421875 102.195312 -115 109.9375 -110.15625 C 117.6875 -105.3125 123.804688 -98.394531 128.296875 -89.40625 C 132.796875 -80.414062 135.046875 -69.976562 135.046875 -58.09375 C 135.046875 -46.195312 132.796875 -35.71875 128.296875 -26.65625 C 123.804688 -17.59375 117.6875 -10.609375 109.9375 -5.703125 C 102.195312 -0.796875 93.554688 1.65625 84.015625 1.65625 C 75.992188 1.65625 68.90625 0 62.75 -3.3125 C 56.59375 -6.632812 51.789062 -10.925781 48.34375 -16.1875 L 48.34375 55.1875 L 12.859375 55.1875 L 12.859375 -115.765625 L 48.34375 -115.765625 Z M 98.953125 -58.09375 C 98.953125 -66.9375 96.492188 -73.882812 91.578125 -78.9375 C 86.671875 -83.988281 80.625 -86.515625 73.4375 -86.515625 C 66.382812 -86.515625 60.398438 -83.953125 55.484375 -78.828125 C 50.578125 -73.710938 48.125 -66.726562 48.125 -57.875 C 48.125 -49.03125 50.578125 -42.046875 55.484375 -36.921875 C 60.398438 -31.804688 66.382812 -29.25 73.4375 -29.25 C 80.488281 -29.25 86.503906 -31.84375 91.484375 -37.03125 C 96.460938 -42.21875 98.953125 -49.238281 98.953125 -58.09375 Z M 98.953125 -58.09375 "/></g></g></g><g fill="#3ac530" fill-opacity="1"><g transform="translate(771.319406, 216.395762)"><g><path d="M 121.984375 -59.75 C 121.984375 -56.425781 121.773438 -52.96875 121.359375 -49.375 L 41.078125 -49.375 C 41.628906 -42.1875 43.941406 -36.6875 48.015625 -32.875 C 52.097656 -29.070312 57.113281 -27.171875 63.0625 -27.171875 C 71.914062 -27.171875 78.070312 -30.90625 81.53125 -38.375 L 119.28125 -38.375 C 117.34375 -30.769531 113.847656 -23.925781 108.796875 -17.84375 C 103.753906 -11.757812 97.429688 -6.988281 89.828125 -3.53125 C 82.222656 -0.0703125 73.71875 1.65625 64.3125 1.65625 C 52.96875 1.65625 42.867188 -0.757812 34.015625 -5.59375 C 25.171875 -10.4375 18.257812 -17.351562 13.28125 -26.34375 C 8.300781 -35.332031 5.8125 -45.84375 5.8125 -57.875 C 5.8125 -69.90625 8.265625 -80.414062 13.171875 -89.40625 C 18.078125 -98.394531 24.957031 -105.3125 33.8125 -110.15625 C 42.664062 -115 52.832031 -117.421875 64.3125 -117.421875 C 75.507812 -117.421875 85.460938 -115.066406 94.171875 -110.359375 C 102.890625 -105.660156 109.703125 -98.953125 114.609375 -90.234375 C 119.523438 -81.523438 121.984375 -71.363281 121.984375 -59.75 Z M 85.671875 -69.078125 C 85.671875 -75.160156 83.597656 -80 79.453125 -83.59375 C 75.304688 -87.195312 70.117188 -89 63.890625 -89 C 57.941406 -89 52.925781 -87.269531 48.84375 -83.8125 C 44.769531 -80.351562 42.25 -75.441406 41.28125 -69.078125 Z M 85.671875 -69.078125 "/></g></g></g><g fill="#3ac530" fill-opacity="1"><g transform="translate(899.105767, 216.395762)"><g><path d="M 48.34375 -96.46875 C 52.488281 -102.832031 57.671875 -107.84375 63.890625 -111.5 C 70.117188 -115.164062 77.035156 -117 84.640625 -117 L 84.640625 -79.453125 L 74.890625 -79.453125 C 66.035156 -79.453125 59.394531 -77.550781 54.96875 -73.75 C 50.550781 -69.945312 48.34375 -63.273438 48.34375 -53.734375 L 48.34375 0 L 12.859375 0 L 12.859375 -115.765625 L 48.34375 -115.765625 Z M 48.34375 -96.46875 "/></g></g></g></g></g></svg>