<svg xmlns="http://www.w3.org/2000/svg" xmlns:xlink="http://www.w3.org/1999/xlink" width="2000" zoomAndPan="magnify" viewBox="0 0 1500 1499.999933" height="2000" preserveAspectRatio="xMidYMid meet" version="1.0"><defs><clipPath id="49d0c1a052"><path d="M 0.167969 0.167969 L 1391.832031 0.167969 L 1391.832031 1391.832031 L 0.167969 1391.832031 Z M 0.167969 0.167969 " clip-rule="nonzero"/></clipPath><clipPath id="18669f2a98"><path d="M 696 0.167969 C 311.703125 0.167969 0.167969 311.703125 0.167969 696 C 0.167969 1080.296875 311.703125 1391.832031 696 1391.832031 C 1080.296875 1391.832031 1391.832031 1080.296875 1391.832031 696 C 1391.832031 311.703125 1080.296875 0.167969 696 0.167969 Z M 696 0.167969 " clip-rule="nonzero"/></clipPath><clipPath id="7eb3cc63d6"><path d="M 0.167969 0.167969 L 1391.832031 0.167969 L 1391.832031 1391.832031 L 0.167969 1391.832031 Z M 0.167969 0.167969 " clip-rule="nonzero"/></clipPath><clipPath id="3a035f4f4d"><path d="M 696 0.167969 C 311.703125 0.167969 0.167969 311.703125 0.167969 696 C 0.167969 1080.296875 311.703125 1391.832031 696 1391.832031 C 1080.296875 1391.832031 1391.832031 1080.296875 1391.832031 696 C 1391.832031 311.703125 1080.296875 0.167969 696 0.167969 Z M 696 0.167969 " clip-rule="nonzero"/></clipPath><clipPath id="134b85d998"><rect x="0" width="1392" y="0" height="1392"/></clipPath><clipPath id="867930f0a2"><path d="M 249.75 661 L 1140 661 L 1140 1012 L 249.75 1012 Z M 249.75 661 " clip-rule="nonzero"/></clipPath><clipPath id="815865bd86"><rect x="0" width="1392" y="0" height="1392"/></clipPath></defs><g transform="matrix(1, 0, 0, 1, 54, 54)"><g clip-path="url(#815865bd86)"><g clip-path="url(#49d0c1a052)"><g clip-path="url(#18669f2a98)"><g transform="matrix(1, 0, 0, 1, -0.000000000000007105, 0.000000000000106581)"><g clip-path="url(#134b85d998)"><g clip-path="url(#7eb3cc63d6)"><g clip-path="url(#3a035f4f4d)"><path fill="#3ac530" d="M 0.167969 0.167969 L 1391.832031 0.167969 L 1391.832031 1391.832031 L 0.167969 1391.832031 Z M 0.167969 0.167969 " fill-opacity="1" fill-rule="nonzero"/></g></g></g></g></g></g><path fill="#ffffff" d="M 968.539062 811.953125 C 956.082031 757.765625 916.992188 734.421875 868.179688 722.203125 C 874.925781 725.035156 881.789062 727.625 888.398438 730.738281 C 914.359375 742.972656 937.769531 758.988281 949.855469 785.804688 C 966.277344 822.246094 962.613281 826.503906 934.917969 844.199219 C 923.941406 851.210938 911.875 856.945312 899.613281 861.339844 C 892.460938 863.902344 883.90625 863.441406 876.054688 863.003906 C 834.550781 860.703125 793.761719 853.523438 753.316406 844.179688 C 752.59375 844.011719 751.9375 843.554688 750.929688 843.082031 C 770.226562 834.480469 789.253906 826 808.28125 817.519531 C 808.011719 816.808594 807.738281 816.101562 807.46875 815.394531 C 805.132812 816.296875 802.792969 817.199219 800.453125 818.101562 C 721.4375 848.609375 640.28125 867.960938 554.886719 864.972656 C 509.175781 863.371094 464.765625 855.511719 423.253906 835.4375 C 413.132812 830.539062 403.425781 824.375 394.464844 817.5625 C 370.71875 799.503906 363.664062 778.777344 372.347656 750.113281 C 386.195312 704.414062 418.640625 678.34375 463.953125 667.417969 C 503.164062 657.964844 541.160156 665.003906 578.488281 677.839844 C 579.691406 678.253906 580.878906 678.839844 581.933594 679.550781 C 618.789062 704.464844 659.636719 720.601562 701.671875 734.140625 C 703.09375 734.597656 704.425781 735.324219 707.410156 736.632812 C 686.164062 739.675781 666.59375 742.558594 647 745.277344 C 613.554688 749.914062 580.035156 753.5625 546.171875 752.429688 C 527.269531 751.792969 508.660156 749.347656 490.929688 742.542969 C 476.042969 736.832031 463.132812 728.769531 460.042969 711.464844 C 458.882812 719.730469 462.667969 728.421875 471.398438 736.128906 C 482.882812 746.265625 496.6875 751.78125 511.332031 755.4375 C 541.207031 762.898438 571.667969 763.617188 601.949219 760.539062 C 641.617188 756.507812 681.050781 750.195312 720.667969 745.546875 C 728.527344 744.625 737.300781 745.222656 744.695312 747.832031 C 768.679688 756.304688 792.511719 765.371094 815.796875 775.585938 C 825.980469 780.054688 835.289062 787.15625 843.933594 794.339844 C 856.449219 804.738281 863.308594 818.199219 860.976562 835.277344 C 865.445312 827.378906 865.625 819.003906 863.265625 810.554688 C 860.035156 798.988281 852.863281 790.035156 843.734375 782.464844 C 824.988281 766.917969 803.070312 757.269531 780.464844 749.269531 C 742.875 735.964844 704.832031 723.933594 667.382812 710.261719 C 634.175781 698.140625 602.285156 683.105469 574.320312 660.867188 C 546.304688 638.585938 524.921875 611.769531 518.28125 575.667969 C 509.332031 527.039062 528.738281 490.109375 567.746094 462.464844 C 596.847656 441.835938 630.289062 431.53125 664.882812 424.671875 C 677.753906 422.117188 690.707031 419.945312 703.675781 417.957031 C 724.144531 414.816406 743.890625 409.375 762.84375 400.964844 C 768.648438 398.386719 774.777344 396.546875 781.511719 395.714844 C 774.785156 401.039062 768.054688 406.363281 761.328125 411.6875 C 797.859375 388.609375 836.753906 378.460938 882.054688 386.640625 C 873.492188 389.03125 867.03125 390.835938 860.570312 392.636719 C 860.644531 393.042969 860.722656 393.445312 860.796875 393.847656 C 874.351562 391.421875 888.042969 389.566406 901.425781 386.410156 C 914.375 383.355469 926.691406 383.476562 939.347656 387.859375 C 947.304688 390.613281 955.84375 391.664062 964.105469 393.554688 C 971.371094 395.214844 978.738281 396.597656 985.851562 398.78125 C 1005.789062 404.902344 1013.578125 428.460938 1002.09375 446.171875 C 999.273438 450.527344 997.269531 455.652344 995.957031 460.703125 C 992.75 473.046875 988.09375 484.484375 979.550781 493.59375 C 981.660156 485.011719 984.507812 476.332031 985.785156 467.429688 C 987.101562 458.246094 984.910156 456.859375 975.792969 458.28125 C 974.429688 458.492188 972.882812 457.523438 970.972656 456.972656 C 969.207031 473.046875 963.417969 488.167969 951.433594 499.503906 C 953.332031 490.859375 956.214844 481.863281 957.066406 472.679688 C 957.921875 463.488281 955.183594 462.328125 946.0625 464.519531 C 931.824219 467.941406 917.449219 470.789062 903.195312 474.140625 C 900.613281 474.746094 897.777344 476.078125 895.996094 477.964844 C 886.425781 488.082031 886.582031 514.421875 896.273438 524.171875 C 897.671875 525.582031 900.421875 526.042969 902.601562 526.210938 C 926.761719 528.066406 944.535156 539.136719 954.429688 561.738281 C 963 581.308594 977.652344 591.351562 999.304688 591.691406 C 990.234375 591.691406 981.164062 591.691406 971.554688 591.691406 C 977.367188 595.90625 983.386719 600.269531 989.121094 604.429688 C 977.785156 603.867188 962.78125 593.671875 954.632812 580.269531 C 950.492188 573.460938 947.054688 566.230469 943.082031 559.316406 C 934.34375 544.097656 920.332031 537.855469 901.015625 535.769531 C 908.625 545.976562 914.785156 554.714844 921.464844 563.039062 C 927.050781 570.003906 926.199219 576.382812 918.0625 580.269531 C 908.867188 584.664062 899.226562 583.910156 890.328125 579.925781 C 882.167969 576.273438 874.046875 571.917969 867.042969 566.421875 C 839.027344 544.433594 809.816406 524.339844 778.460938 507.378906 C 773.074219 504.464844 768.191406 500.625 762.015625 498.402344 C 768.011719 503.378906 774.007812 508.351562 780 513.328125 C 736.753906 499.265625 694.160156 497.28125 651.929688 518.703125 C 655.089844 516.054688 658.121094 513.234375 661.445312 510.816406 C 664.746094 508.414062 668.34375 506.414062 671.398438 503.785156 C 645.71875 512.355469 628.304688 529.605469 620.335938 555.484375 C 611.757812 583.328125 620.058594 607.0625 640.59375 627.125 C 622.175781 601.148438 618.269531 574.363281 635.441406 546.144531 C 637.398438 577.242188 658.5 593.621094 682.34375 607.433594 C 717.34375 627.710938 756.007812 637.675781 795.238281 645.476562 C 823.753906 651.148438 852.585938 655.261719 881.019531 661.273438 C 905.613281 666.476562 928.777344 675.824219 949.125 691.109375 C 985.242188 718.242188 995.265625 766.09375 973.019531 805.070312 C 971.78125 807.242188 970.292969 809.273438 968.539062 811.953125 Z M 607.992188 777.21875 C 603.390625 777.21875 598.777344 777.414062 594.1875 777.183594 C 572.628906 776.121094 550.835938 776.558594 529.566406 773.445312 C 490.996094 767.800781 454.28125 756.894531 428.546875 724.082031 C 431.828125 734.378906 438.503906 742.285156 446.507812 749.183594 C 463.757812 764.046875 484.269531 772.199219 506.191406 776.613281 C 539.996094 783.425781 574.007812 782.683594 607.992188 777.21875 Z M 528.125 563.847656 C 530.546875 534.644531 541.957031 509.753906 562.328125 488.882812 C 582.3125 468.414062 606.738281 454.882812 632.523438 443.398438 C 600.65625 453.582031 570.996094 467.414062 549.292969 494.226562 C 532.851562 514.539062 526.109375 537.914062 528.125 563.847656 Z M 824.484375 467.390625 C 826.847656 468.039062 829.179688 468.859375 831.582031 469.304688 C 867.046875 475.910156 901.617188 472.699219 935.726562 460.941406 C 947.515625 456.878906 960.148438 455.296875 972.316406 452.265625 C 977.226562 451.042969 981.910156 448.929688 986.730469 447.3125 C 990.84375 445.929688 995 444.683594 999.257812 443.335938 C 996.832031 439.300781 992.933594 441.257812 988.882812 443.054688 C 984.011719 445.21875 979.183594 447.820312 974.054688 449.003906 C 962.3125 451.710938 950.03125 452.515625 938.625 456.148438 C 901.308594 468.027344 863.535156 473.101562 824.484375 467.390625 Z M 898.003906 570.988281 C 898.171875 570.6875 898.34375 570.382812 898.511719 570.082031 C 889.152344 560.992188 879.195312 552.433594 870.5625 542.699219 C 855.191406 525.371094 840.78125 507.191406 825.617188 489.675781 C 820.539062 483.8125 814.375 478.886719 808.710938 473.535156 C 818.3125 486.992188 828.5 499.714844 839.050781 512.128906 C 850.378906 525.460938 861.582031 538.957031 873.75 551.496094 C 880.917969 558.882812 889.859375 564.550781 898.003906 570.988281 Z M 891.398438 425.90625 C 892.019531 421.246094 892.589844 416.96875 893.164062 412.6875 C 893.851562 412.789062 894.539062 412.886719 895.226562 412.988281 C 895.226562 417.265625 895.226562 421.546875 895.226562 426.113281 C 901.644531 426.367188 906.964844 424.265625 907.503906 418.019531 C 908.171875 410.269531 900.921875 408.988281 895.402344 407.523438 C 890.117188 406.117188 884.417969 406.960938 882.894531 413.269531 C 881.300781 419.855469 885.546875 423.582031 891.398438 425.90625 Z M 814.875 417.335938 C 780.453125 412.945312 750.453125 433.945312 757.414062 455.941406 C 764.25 426.25 788.179688 421.265625 814.875 417.335938 Z M 925.496094 411.46875 C 891.949219 395.460938 882.921875 394.621094 872.964844 402.933594 C 880.015625 402.601562 889.441406 400.71875 898.347656 402.125 C 907.65625 403.59375 916.46875 408.222656 925.496094 411.46875 Z M 860.621094 479.410156 C 848.519531 487.253906 845.339844 503.699219 852.914062 512.707031 C 850.652344 497.707031 851.375 494.300781 860.621094 479.410156 Z M 974.875 408.777344 C 987.832031 416.761719 988.160156 417.6875 984.050781 431.15625 C 992.726562 420.757812 990.097656 412.632812 974.875 408.777344 Z M 974.875 408.777344 " fill-opacity="1" fill-rule="nonzero"/><g clip-path="url(#867930f0a2)"><path fill="#ffffff" d="M 1026.453125 838.796875 C 995.554688 860.109375 960.304688 861.457031 924.574219 862.828125 C 958.699219 844.671875 985.015625 820.121094 994.054688 781.410156 C 1076.039062 782.484375 1125.1875 829.867188 1138.683594 895.144531 C 1142.199219 912.148438 1137.933594 925.902344 1124.988281 937.507812 C 1106.667969 953.925781 1084.652344 963.113281 1061.695312 970.21875 C 1017.921875 983.769531 972.742188 989.667969 927.242188 993.253906 C 902.863281 995.179688 878.414062 996.214844 852.128906 997.761719 C 856.027344 998.320312 858.242188 998.910156 860.453125 998.910156 C 925.460938 998.882812 990.253906 996.347656 1053.792969 980.828125 C 1075.363281 975.5625 1096.453125 968.671875 1115.167969 956.328125 C 1123.019531 951.148438 1130.015625 944.664062 1137.488281 938.703125 C 1134.261719 954.886719 1125.113281 966.996094 1111.175781 975.710938 C 1090.648438 988.546875 1067.554688 994.085938 1044.140625 997.816406 C 956.253906 1011.808594 867.726562 1013.542969 779.082031 1009.105469 C 746.492188 1007.472656 713.871094 1003.898438 681.613281 998.933594 C 640.394531 992.582031 605.136719 971.597656 572.328125 947.21875 C 543.847656 926.050781 517.015625 902.660156 489.460938 880.246094 C 487.953125 879.019531 486.507812 877.722656 484.582031 876.980469 C 516.4375 918.679688 556.054688 951.535156 602.90625 979.429688 C 588.648438 982.535156 576.339844 985.550781 563.90625 987.863281 C 507.164062 998.414062 450.621094 998.292969 394.792969 982.511719 C 350.199219 969.90625 313.195312 945.847656 287.824219 906.207031 C 265.105469 870.71875 261.9375 832.292969 271.121094 791.789062 C 275.3125 773.304688 278.574219 754.355469 279.617188 735.472656 C 281.007812 710.246094 272.308594 687.902344 253.695312 670.039062 C 252.953125 669.324219 252.003906 668.675781 251.601562 667.792969 C 250.8125 666.066406 250.347656 664.191406 249.75 662.378906 C 251.867188 662.210938 254.25 661.351562 256.042969 662.039062 C 259.109375 663.210938 262.011719 665.085938 264.625 667.128906 C 285.328125 683.292969 297.101562 705.058594 298.058594 730.761719 C 298.84375 751.914062 296.777344 773.457031 293.433594 794.417969 C 282.210938 864.746094 327.023438 910.753906 381.339844 925.914062 C 409.789062 933.855469 438.277344 934 466.828125 926.765625 C 471.507812 925.578125 476 923.664062 480.324219 921.21875 C 470.753906 922.832031 461.242188 925.003906 451.613281 925.964844 C 406.320312 930.476562 365.183594 920.675781 330.109375 890.136719 C 325.707031 886.304688 324.378906 882.359375 324.820312 876.699219 C 326.945312 849.601562 346.234375 822.59375 373.199219 809.554688 C 410.601562 849.457031 460.144531 862.222656 511.316406 869.433594 C 582.777344 879.5 653.058594 871.234375 722.160156 851.207031 C 727.082031 849.78125 732.929688 849.503906 737.90625 850.628906 C 782.652344 860.757812 827.574219 869.628906 873.515625 872.121094 C 911.75 874.195312 949.789062 873.335938 986.757812 861.882812 C 995.285156 859.238281 1003.585938 855.402344 1011.378906 851.019531 C 1016.933594 847.894531 1021.464844 842.9375 1026.453125 838.796875 Z M 502.058594 921.585938 C 502.964844 920.648438 503.871094 919.714844 504.777344 918.777344 C 501.90625 916.398438 498.671875 914.34375 496.230469 911.585938 C 486.851562 901 477.960938 889.976562 468.394531 879.574219 C 464.765625 875.628906 460.21875 871.976562 455.367188 869.8125 C 434.765625 860.621094 413.667969 852.53125 393.238281 842.996094 C 385.085938 839.191406 378.195312 832.6875 370.726562 827.410156 C 370.199219 827.984375 369.671875 828.558594 369.144531 829.132812 C 376.398438 835.65625 382.773438 843.765625 391.089844 848.375 C 408.089844 857.800781 425.871094 865.976562 443.859375 873.390625 C 452.617188 877.003906 459.976562 881.109375 466.585938 888.183594 C 477.652344 900.027344 490.160156 910.523438 502.058594 921.585938 Z M 502.058594 921.585938 " fill-opacity="1" fill-rule="nonzero"/></g></g></g></svg>